<?xml version="1.0" encoding="UTF-8"?> <svg xmlns="http://www.w3.org/2000/svg" xmlns:xlink="http://www.w3.org/1999/xlink" viewBox="0 0 150.05 112.2"><linearGradient id="a" gradientUnits="userSpaceOnUse" x1="6.19" x2="95.53" y1="15.53" y2="102.87"><stop offset="0" stop-color="#4341db"></stop><stop offset="1" stop-color="#602dbe"></stop></linearGradient><linearGradient id="b" x1="28.79" x2="118.13" xlink:href="#a" y1="-7.58" y2="79.75"></linearGradient><linearGradient id="c" x1="7.88" x2="97.21" xlink:href="#a" y1="13.81" y2="101.14"></linearGradient><linearGradient id="d" x1="11.04" x2="100.38" xlink:href="#a" y1="10.57" y2="97.91"></linearGradient><linearGradient id="e" x1="14.2" x2="103.54" xlink:href="#a" y1="7.34" y2="94.67"></linearGradient><linearGradient id="f" x1="2.86" x2="92.19" xlink:href="#a" y1="18.94" y2="106.28"></linearGradient><linearGradient id="g" x1="5.54" x2="94.87" xlink:href="#a" y1="16.2" y2="103.53"></linearGradient><linearGradient id="h" gradientTransform="matrix(.98416469 .17725651 -.17725651 .98416469 14.6 -6.3)" x1="-7.55" x2="81.78" xlink:href="#a" y1="29.59" y2="116.92"></linearGradient><linearGradient id="i" gradientTransform="matrix(.17725651 .98416469 -.98416469 .17725651 126.66 5.64)" x1=".95" x2="90.29" xlink:href="#a" y1="20.89" y2="108.23"></linearGradient><linearGradient id="j" x1="1.99" x2="91.33" xlink:href="#a" y1="19.83" y2="107.16"></linearGradient><linearGradient id="k" x1="-10.02" x2="79.31" xlink:href="#a" y1="32.12" y2="119.45"></linearGradient><linearGradient id="l" x1="-13.53" x2="75.8" xlink:href="#a" y1="35.71" y2="123.04"></linearGradient><linearGradient id="m" x1="-17.04" x2="72.29" xlink:href="#a" y1="39.3" y2="126.64"></linearGradient><linearGradient id="n" x1="-17.33" x2="72" xlink:href="#a" y1="39.6" y2="126.93"></linearGradient><linearGradient id="o" x1="20.71" x2="110.04" xlink:href="#a" y1=".69" y2="88.02"></linearGradient><linearGradient id="p" gradientTransform="matrix(.96597098 .25865046 -.25865046 .96597098 9.64 -10.14)" x1="16.34" x2="105.67" xlink:href="#a" y1="5.16" y2="92.49"></linearGradient><linearGradient id="q" gradientTransform="matrix(.86611266 .49984884 -.49984884 .86611266 22.13 -13.37)" x1="11.22" x2="100.56" xlink:href="#a" y1="10.39" y2="97.72"></linearGradient><linearGradient id="r" gradientTransform="matrix(.70710678 .70710678 -.70710678 .70710678 36.61 -9.45)" x1="5.72" x2="95.05" xlink:href="#a" y1="16.02" y2="103.35"></linearGradient><linearGradient id="s" gradientTransform="matrix(.50015114 .86593812 -.86593812 .50015114 52.07 1.35)" x1=".2" x2="89.53" xlink:href="#a" y1="21.66" y2="109"></linearGradient><linearGradient id="t" gradientTransform="matrix(.25865046 .96597098 -.96597098 .25865046 67.49 18.3)" x1="-4.96" x2="84.37" xlink:href="#a" y1="26.94" y2="114.28"></linearGradient><linearGradient id="u" x1="-9.41" x2="79.92" xlink:href="#a" y1="31.49" y2="118.83"></linearGradient><linearGradient id="v" gradientTransform="matrix(.96592583 .25881905 -.25881905 .96592583 18.57 -3.3)" x1="-12.85" x2="76.49" xlink:href="#a" y1="35.01" y2="122.34"></linearGradient><linearGradient id="w" gradientTransform="matrix(.86611266 .49984884 -.49984884 .86611266 41.45 -2.22)" x1="-15.03" x2="74.3" xlink:href="#a" y1="37.24" y2="124.58"></linearGradient><linearGradient id="x" gradientTransform="matrix(.70723018 .70698336 -.70698336 .70723018 67.06 3.17)" x1="-15.82" x2="73.51" xlink:href="#a" y1="38.05" y2="125.38"></linearGradient><linearGradient id="y" gradientTransform="matrix(.70735356 .70685991 -.70685991 .70735356 79.67 -27.29)" x1="5.24" x2="94.57" xlink:href="#a" y1="16.51" y2="103.85"></linearGradient><linearGradient id="z" gradientTransform="matrix(.50015114 .86593812 -.86593812 .50015114 104.84 -29.11)" x1="10.76" x2="100.09" xlink:href="#a" y1="10.87" y2="98.2"></linearGradient><linearGradient id="A" gradientTransform="matrix(.25881905 .96592583 -.96592583 .25881905 126.35 -26.86)" x1="15.92" x2="105.25" xlink:href="#a" y1="5.59" y2="92.92"></linearGradient><linearGradient id="B" x1="20.37" x2="109.7" xlink:href="#a" y1="1.04" y2="88.37"></linearGradient><linearGradient id="C" gradientTransform="matrix(.96592583 .25881905 -.25881905 .96592583 16.5 -19.07)" x1="23.8" x2="113.13" xlink:href="#a" y1="-2.48" y2="84.86"></linearGradient><linearGradient id="D" gradientTransform="matrix(.8660254 .5 -.5 .8660254 33.29 -32.69)" x1="25.99" x2="115.32" xlink:href="#a" y1="-4.71" y2="82.62"></linearGradient><linearGradient id="E" gradientTransform="matrix(.70710678 .70710678 -.70710678 .70710678 49.23 -39.91)" x1="26.78" x2="116.11" xlink:href="#a" y1="-5.52" y2="81.81"></linearGradient><linearGradient id="F" gradientTransform="matrix(.49969767 .86619988 -.86619988 .49969767 63.25 -40.27)" x1="26.11" x2="115.45" xlink:href="#a" y1="-4.84" y2="82.49"></linearGradient><linearGradient id="G" gradientTransform="matrix(.25898763 .96588064 -.96588064 .25898763 74.32 -33.72)" x1="24.04" x2="113.38" xlink:href="#a" y1="-2.73" y2="84.61"></linearGradient><path d="m0 0h150.05v112.2h-150.05z" fill="none"></path><path d="m102.5 101.03h-32.5v-4h28.5v-74.91h-94.5v74.91h28.5v4h-32.5v-82.91h102.5z" fill="url(#a)"></path><path d="m102.5 22.12h-102.5v-15.5h102.5zm-98.5-4h94.5v-7.5h-94.5z" fill="url(#b)"></path><path d="m6.5 12.29h3.74v4h-3.74z" fill="url(#c)"></path><path d="m12.97 12.29h3.74v4h-3.74z" fill="url(#d)"></path><path d="m19.44 12.29h3.74v4h-3.74z" fill="url(#e)"></path><path d="m65.26 93.74h-28.07l-.13-1.87a12.2 12.2 0 0 0 -1.7-6.16c-9.68-12.46-10-24.44-10-24.56a25.85 25.85 0 1 1 51.7 0c0 .12-.28 12.09-10 24.59a12.34 12.34 0 0 0 -1.72 6.15zm-24.39-4h20.74a13.9 13.9 0 0 1 2.33-6.43c8.85-11.4 9.15-22.06 9.16-22.16a21.85 21.85 0 1 0 -43.7 0c0 .1.3 10.76 9.14 22.14a13.85 13.85 0 0 1 2.33 6.45z" fill="url(#f)"></path><path d="m35.73 61.06h-4a19.5 19.5 0 0 1 19.52-19.43v4a15.49 15.49 0 0 0 -15.52 15.43z" fill="url(#g)"></path><path d="m40.55 65.26h4v26.63h-4z" fill="url(#h)" transform="matrix(.98416469 -.17725651 .17725651 .98416469 -13.26 8.79)"></path><path d="m46.64 76.57h26.63v4h-26.63z" fill="url(#i)" transform="matrix(.17725651 -.98416469 .98416469 .17725651 -28 123.65)"></path><path d="m51.24 71.32-3.63-2-3.64 2-4.6-2.53 1.93-3.5 2.67 1.47 3.64-2 3.63 2 3.64-2 3.64 2 2.68-1.47 1.93 3.51-4.61 2.52-3.64-2z" fill="url(#j)"></path><path d="m35.75 90.02h31.01v4h-31.01z" fill="url(#k)"></path><path d="m35.75 97.04h31.01v4h-31.01z" fill="url(#l)"></path><path d="m40.94 104.07h20.62v4h-20.62z" fill="url(#m)"></path><path d="m37.34 92.34h4v5.34h-4z" fill="url(#n)"></path><path d="m49.25 28.18h4v4.73h-4z" fill="url(#o)"></path><path d="m41.37 29.22h4v4.73h-4z" fill="url(#p)" transform="matrix(.96597098 -.25865046 .25865046 .96597098 -6.69 12.29)"></path><path d="m34.02 32.26h4v4.73h-4z" fill="url(#q)" transform="matrix(.86611266 -.49984884 .49984884 .86611266 -12.49 22.64)"></path><path d="m27.71 37.1h4v4.73h-4z" fill="url(#r)" transform="matrix(.70710678 -.70710678 .70710678 .70710678 -19.21 32.57)"></path><path d="m22.87 43.41h4v4.73h-4z" fill="url(#s)" transform="matrix(.50015114 -.86593812 .86593812 .50015114 -27.21 44.42)"></path><path d="m19.82 50.76h4v4.73h-4z" fill="url(#t)" transform="matrix(.25865046 -.96597098 .96597098 .25865046 -35.14 60.46)"></path><path d="m18.42 59.01h4.73v4h-4.73z" fill="url(#u)"></path><path d="m19.46 66.9h4.73v4h-4.73z" fill="url(#v)" transform="matrix(.97 -.26 .26 .97 -17.08 7.99)"></path><path d="m22.5 74.25h4.73v4h-4.73z" fill="url(#w)" transform="matrix(.86611266 -.49984884 .49984884 .86611266 -34.79 22.64)"></path><path d="m27.34 80.56h4.73v4h-4.73z" fill="url(#x)" transform="matrix(.70723018 -.70698336 .70698336 .70723018 -49.67 45.17)"></path><path d="m70.79 80.19h4v4.73h-4z" fill="url(#y)" transform="matrix(.70735356 -.70685991 .70685991 .70735356 -37.05 75.62)"></path><path d="m75.63 73.88h4v4.73h-4z" fill="url(#z)" transform="matrix(.50015114 -.86593812 .86593812 .50015114 -27.22 105.34)"></path><path d="m78.68 66.54h4v4.73h-4z" fill="url(#A)" transform="matrix(.26 -.97 .97 .26 -6.75 129)"></path><path d="m79.36 59.01h4.73v4h-4.73z" fill="url(#B)"></path><path d="m78.32 51.13h4.73v4h-4.73z" fill="url(#C)" transform="matrix(.97 -.26 .26 .97 -11 22.69)"></path><path d="m75.27 43.78h4.73v4h-4.73z" fill="url(#D)" transform="matrix(.8660254 -.5 .5 .8660254 -12.49 44.95)"></path><path d="m70.43 37.47h4.73v4h-4.73z" fill="url(#E)" transform="matrix(.70710678 -.70710678 .70710678 .70710678 -6.59 63.03)"></path><path d="m64.12 32.63h4.73v4h-4.73z" fill="url(#F)" transform="matrix(.49969767 -.86619988 .86619988 .49969767 3.27 74.91)"></path><path d="m56.77 29.58h4.73v4h-4.73z" fill="url(#G)" transform="matrix(.25898763 -.96588064 .96588064 .25898763 13.31 80.52)"></path></svg> 