<?xml version="1.0" encoding="UTF-8"?> <svg xmlns="http://www.w3.org/2000/svg" xmlns:xlink="http://www.w3.org/1999/xlink" viewBox="0 0 150.05 112.2"><linearGradient id="a" gradientUnits="userSpaceOnUse" x1="-23.4" x2="94.25" y1="33.32" y2="128.9"><stop offset="0" stop-color="#4341db"></stop><stop offset="1" stop-color="#602dbe"></stop></linearGradient><linearGradient id="b" x1="-40.79" x2="76.85" xlink:href="#a" y1="54.73" y2="150.32"></linearGradient><linearGradient id="c" x1="-37.97" x2="79.68" xlink:href="#a" y1="51.25" y2="146.84"></linearGradient><linearGradient id="d" x1="-33.93" x2="83.72" xlink:href="#a" y1="46.27" y2="141.86"></linearGradient><linearGradient id="e" x1="-31.1" x2="86.55" xlink:href="#a" y1="42.8" y2="138.38"></linearGradient><linearGradient id="f" x1="-27.06" x2="90.59" xlink:href="#a" y1="37.82" y2="133.41"></linearGradient><linearGradient id="g" x1="-24.23" x2="93.42" xlink:href="#a" y1="34.34" y2="129.93"></linearGradient><linearGradient id="h" x1="-20.19" x2="97.46" xlink:href="#a" y1="29.37" y2="124.96"></linearGradient><linearGradient id="i" x1="-17.36" x2="100.28" xlink:href="#a" y1="25.89" y2="121.48"></linearGradient><linearGradient id="j" x1="-13.32" x2="104.33" xlink:href="#a" y1="20.92" y2="116.5"></linearGradient><linearGradient id="k" x1="-10.5" x2="107.15" xlink:href="#a" y1="17.44" y2="113.03"></linearGradient><linearGradient id="l" x1="-6.45" x2="111.19" xlink:href="#a" y1="12.46" y2="108.05"></linearGradient><linearGradient id="m" x1="-19.96" x2="97.68" xlink:href="#a" y1="29.09" y2="124.68"></linearGradient><linearGradient id="n" x1="-4.1" x2="113.55" xlink:href="#a" y1="9.56" y2="105.15"></linearGradient><linearGradient id="o" x1="-1.64" x2="116.01" xlink:href="#a" y1="6.54" y2="102.13"></linearGradient><linearGradient id="p" x1="19.71" x2="137.36" xlink:href="#a" y1="-19.74" y2="75.85"></linearGradient><linearGradient id="q" x1="14.07" x2="131.72" xlink:href="#a" y1="-12.8" y2="82.79"></linearGradient><linearGradient id="r" x1="-33.95" x2="83.69" xlink:href="#a" y1="46.31" y2="141.9"></linearGradient><linearGradient id="s" x1="10.97" x2="128.62" xlink:href="#a" y1="-8.98" y2="86.61"></linearGradient><linearGradient id="t" x1="-16.76" x2="100.89" xlink:href="#a" y1="25.14" y2="120.73"></linearGradient><linearGradient id="u" x1="-31.95" x2="85.7" xlink:href="#a" y1="43.84" y2="139.43"></linearGradient><linearGradient id="v" x1="-.07" x2="117.57" xlink:href="#a" y1="4.61" y2="100.2"></linearGradient><linearGradient id="w" x1="-3.57" x2="114.07" xlink:href="#a" y1="8.92" y2="104.51"></linearGradient><linearGradient id="x" x1="-26.57" x2="91.07" xlink:href="#a" y1="37.23" y2="132.81"></linearGradient><path d="m0 0h150.05v112.2h-150.05z" fill="none"></path><path d="m95 99.82h-55.27v-4h45.6l-16.21-16.21 2.88-2.83zm-61.38 0h-33.62v-95l21.66 21.67-2.83 2.83-14.83-14.83v81.33h29.61zm14.38-16.25h-31.75v-34.69h4v30.69h27.75z" fill="url(#a)"></path><path d="m2 90.42h7.2v4h-7.2z" fill="url(#b)"></path><path d="m2 83.4h4.14v4h-4.14z" fill="url(#c)"></path><path d="m2 76.39h7.2v4h-7.2z" fill="url(#d)"></path><path d="m2 69.37h4.14v4h-4.14z" fill="url(#e)"></path><path d="m2 62.35h7.2v4h-7.2z" fill="url(#f)"></path><path d="m2 55.34h4.14v4h-4.14z" fill="url(#g)"></path><path d="m2 48.32h7.2v4h-7.2z" fill="url(#h)"></path><path d="m2 41.3h4.14v4h-4.14z" fill="url(#i)"></path><path d="m2 34.29h7.2v4h-7.2z" fill="url(#j)"></path><path d="m2 27.27h4.14v4h-4.14z" fill="url(#k)"></path><path d="m2 20.26h7.2v4h-7.2z" fill="url(#l)"></path><path d="m59.19 105.85-8.35-15.36v-2.74h4v1.72l4.35 8.01 4.36-8.01v-1.72h4v2.74z" fill="url(#m)"></path><path d="m68.19 91.51h-17.99v-61.05h4v57.05h9.99v-57.05h4z" fill="url(#n)"></path><path d="m57.19 28.89h4v54.15h-4z" fill="url(#o)"></path><path d="m67.56 14.65h-4v-2.34h-8.73v2.34h-4v-3.2a3 3 0 0 1 .9-2.13 3.55 3.55 0 0 1 2.5-1h9.93a3.29 3.29 0 0 1 3.4 3.14z" fill="url(#p)"></path><path d="m68.19 30.76h-18v-13.76h18zm-14-4h10v-5.76h-10z" fill="url(#q)"></path><path d="m35.11 100.74h4v6.62h-4z" fill="url(#r)"></path><path d="m43.92 16.07h-4v-3.76h-5.8v3.76h-4v-7.76h13.8z" fill="url(#s)"></path><path d="m29.91 83.74v-29.84h4v25.84h6.17v-25.84h4v29.84z" fill="url(#t)"></path><path d="m41.87 103.59h-9.74v-7.47h4v3.47h1.74v-3.47h4z" fill="url(#u)"></path><path d="m45.2 55.15h-16.35v-40.8h16.35zm-12.35-4h8.35v-32.8h-8.35z" fill="url(#v)"></path><path d="m22.86 55.42-.01-33.55h20.32v4h-16.32l.01 29.55z" fill="url(#w)"></path><path d="m30.55 97.81v-17.81h12.89v17.81zm4-13.86v9.86h4.89v-9.81z" fill="url(#x)"></path></svg> 