<?xml version="1.0" encoding="UTF-8"?> <svg xmlns="http://www.w3.org/2000/svg" xmlns:xlink="http://www.w3.org/1999/xlink" viewBox="0 0 150.05 112.2"><defs><style>.cls-1{fill:none;}.cls-2{fill:url(#linear-gradient);}.cls-3{fill:url(#linear-gradient-2);}.cls-4{fill:url(#linear-gradient-3);}.cls-5{fill:url(#linear-gradient-4);}.cls-6{fill:url(#linear-gradient-5);}.cls-7{fill:url(#linear-gradient-6);}.cls-8{fill:url(#linear-gradient-7);}.cls-9{fill:url(#linear-gradient-8);}.cls-10{fill:url(#linear-gradient-9);}.cls-11{fill:url(#linear-gradient-10);}.cls-12{fill:url(#linear-gradient-11);}.cls-13{fill:url(#linear-gradient-12);}.cls-14{fill:url(#linear-gradient-13);}.cls-15{fill:url(#linear-gradient-14);}</style><linearGradient id="linear-gradient" x1="53.77" y1="-8.46" x2="122.43" y2="73.54" gradientUnits="userSpaceOnUse"><stop offset="0" stop-color="#4341db"></stop><stop offset="1" stop-color="#602dbe"></stop></linearGradient><linearGradient id="linear-gradient-2" x1="26.39" y1="14.47" x2="95.05" y2="96.47" xlink:href="#linear-gradient"></linearGradient><linearGradient id="linear-gradient-3" x1="8.81" y1="29.19" x2="77.47" y2="111.19" xlink:href="#linear-gradient"></linearGradient><linearGradient id="linear-gradient-4" x1="4.29" y1="32.97" x2="72.96" y2="114.97" xlink:href="#linear-gradient"></linearGradient><linearGradient id="linear-gradient-5" x1="25.94" y1="14.85" x2="94.6" y2="96.85" xlink:href="#linear-gradient"></linearGradient><linearGradient id="linear-gradient-6" x1="22.37" y1="17.83" x2="91.04" y2="99.83" xlink:href="#linear-gradient"></linearGradient><linearGradient id="linear-gradient-7" x1="10.4" y1="27.86" x2="79.07" y2="109.86" xlink:href="#linear-gradient"></linearGradient><linearGradient id="linear-gradient-8" x1="15.3" y1="23.75" x2="83.97" y2="105.75" xlink:href="#linear-gradient"></linearGradient><linearGradient id="linear-gradient-9" x1="11.73" y1="26.74" x2="80.4" y2="108.74" xlink:href="#linear-gradient"></linearGradient><linearGradient id="linear-gradient-10" x1="-0.23" y1="36.76" x2="68.43" y2="118.76" xlink:href="#linear-gradient"></linearGradient><linearGradient id="linear-gradient-11" x1="4.67" y1="32.66" x2="73.33" y2="114.66" xlink:href="#linear-gradient"></linearGradient><linearGradient id="linear-gradient-12" x1="1.1" y1="35.65" x2="69.77" y2="117.65" xlink:href="#linear-gradient"></linearGradient><linearGradient id="linear-gradient-13" x1="-10.87" y1="45.67" x2="57.8" y2="127.67" xlink:href="#linear-gradient"></linearGradient><linearGradient id="linear-gradient-14" x1="39.59" y1="3.42" x2="108.25" y2="85.42" xlink:href="#linear-gradient"></linearGradient></defs><title>icon_copywriting</title><g id="Layer_2" data-name="Layer 2"><g id="Icons"><rect class="cls-1" width="150.05" height="112.2"></rect><path class="cls-2" d="M84.6,24h-4V21.76H77.5V24h-4V20.52a2.78,2.78,0,0,1,2.79-2.76h5.53a2.78,2.78,0,0,1,2.78,2.76Z"></path><polygon class="cls-3" points="79.06 87.76 73.51 75.53 73.51 73.61 77.51 73.61 77.51 74.66 79.06 78.07 80.6 74.66 80.6 73.61 84.6 73.61 84.6 75.53 79.06 87.76"></polygon><polygon class="cls-4" points="46.8 107.91 0 107.91 0 11.44 68.66 11.44 68.66 86.05 64.66 86.05 64.66 15.44 4 15.44 4 103.91 46.8 103.91 46.8 107.91"></polygon><path class="cls-5" d="M49,107.75V88.23H68.5Zm4-15.52v5.86l5.86-5.86Z"></path><rect class="cls-6" x="24.36" y="28.57" width="29.49" height="4"></rect><rect class="cls-7" x="24.36" y="35.82" width="29.49" height="4"></rect><polygon class="cls-8" points="14.78 39.28 9.95 36.17 12.12 32.81 13.9 33.96 17.8 29.08 20.93 31.57 14.78 39.28"></polygon><rect class="cls-9" x="24.36" y="50.18" width="29.49" height="4"></rect><rect class="cls-10" x="24.36" y="57.42" width="29.49" height="4"></rect><polygon class="cls-11" points="14.78 60.89 9.95 57.78 12.12 54.42 13.9 55.57 17.8 50.68 20.93 53.18 14.78 60.89"></polygon><rect class="cls-12" x="24.36" y="71.78" width="29.49" height="4"></rect><rect class="cls-13" x="24.36" y="79.03" width="29.49" height="4"></rect><polygon class="cls-14" points="14.78 82.5 9.95 79.39 12.12 76.02 13.9 77.18 17.8 72.29 20.93 74.79 14.78 82.5"></polygon><path class="cls-15" d="M84.67,75.37H73.44V25.73H84.67Zm-7.23-4h3.23V29.73H77.44Z"></path></g></g></svg> 