<svg xmlns="http://www.w3.org/2000/svg" width="57" height="6" viewBox="0 0 57 6"><path fill="#5722CD" fill-rule="evenodd" d="M55.7520253,74.595 C55.0333193,73.44 54.1421238,72 52.3525457,72 C50.5629677,72 49.6717722,73.44 48.9530661,74.595 C48.2343601,75.75 47.7168917,76.5 46.7538256,76.5 C45.7907595,76.5 45.3164135,75.75 44.5617722,74.595 C43.8071308,73.44 42.9662447,72 41.1622925,72 C39.3583404,72 38.481519,73.44 37.7628129,74.595 C37.0441069,75.75 36.4978903,76.5 35.5635724,76.5 C34.6292546,76.5 34.1261603,75.75 33.371519,74.595 C32.6168776,73.44 31.7616174,72 29.9720394,72 C28.1824613,72 27.2912658,73.44 26.5725598,74.595 C25.8538537,75.75 25.3363854,76.5 24.3805063,76.5 C23.4246273,76.5 22.9430942,75.75 22.1884529,74.595 C21.4338115,73.44 20.5713643,72 18.7817862,72 C16.9922082,72 16.1010127,73.44 15.3823066,74.595 C14.6636006,75.75 14.1461322,76.5 13.1902532,76.5 C12.2343741,76.5 11.7528411,75.75 10.9981997,74.595 C10.2435584,73.44 9.38111111,72 7.59153305,72 C5.80195499,72 4.91075949,73.44 4.19205345,74.595 C3.4733474,75.75 2.95587904,76.5 2,76.5 L2,78 C3.78957806,78 4.68077356,76.56 5.39947961,75.405 C6.11818565,74.25 6.63565401,73.5 7.59153305,73.5 C8.5474121,73.5 9.02894515,74.25 9.7835865,75.405 C10.5382278,76.56 11.4006751,78 13.1902532,78 C14.9798312,78 15.8710267,76.56 16.5897328,75.405 C17.3084388,74.25 17.8115331,73.5 18.7817862,73.5 C19.7520394,73.5 20.2191983,74.25 20.9738397,75.405 C21.728481,76.56 22.5909283,78 24.3805063,78 C26.1700844,78 27.0612799,76.56 27.7799859,75.405 C28.498692,74.25 29.0089733,73.5 29.9720394,73.5 C30.9351055,73.5 31.4094515,74.25 32.1640928,75.405 C32.9187342,76.56 33.7739944,78 35.5635724,78 C37.3531505,78 38.244346,76.56 38.963052,75.405 C39.6817581,74.25 40.1992264,73.5 41.1622925,73.5 C42.1253586,73.5 42.5997046,74.25 43.354346,75.405 C44.1089873,76.56 44.9642475,78 46.7538256,78 C48.5434037,78 49.4345992,76.56 50.1533052,75.405 C50.8720113,74.25 51.3894796,73.5 52.3525457,73.5 C53.3156118,73.5 53.7899578,74.25 54.5445992,75.405 C55.2992405,76.56 56.1545007,78 57.9440788,78 L58.21,78 L58.21,76.5 C58.1214906,76.5071111 58.0325882,76.5071111 57.9440788,76.5 C56.9881997,76.5 56.4851055,75.75 55.7520253,74.595 Z" transform="translate(-2 -72)"/></svg>